<?xml version="1.0" encoding="UTF-8" standalone="no"?>
<svg
   xmlns:dc="http://purl.org/dc/elements/1.1/"
   xmlns:cc="http://creativecommons.org/ns#"
   xmlns:rdf="http://www.w3.org/1999/02/22-rdf-syntax-ns#"
   xmlns:svg="http://www.w3.org/2000/svg"
   xmlns="http://www.w3.org/2000/svg"
   xmlns:sodipodi="http://sodipodi.sourceforge.net/DTD/sodipodi-0.dtd"
   xmlns:inkscape="http://www.inkscape.org/namespaces/inkscape"
   inkscape:export-ydpi="96"
   inkscape:export-xdpi="96"
   inkscape:export-filename="/Users/connor/Pictures/Design/xword/logo.png"
   sodipodi:docname="logo.svg"
   inkscape:version="1.0 (4035a4f, 2020-05-01)"
   id="svg8"
   version="1.1"
   viewBox="0 0 270.93333 270.93334"
   height="1024"
   width="1024">
  <defs
     id="defs2" />
  <sodipodi:namedview
     inkscape:window-maximized="1"
     inkscape:window-y="23"
     inkscape:window-x="0"
     inkscape:window-height="855"
     inkscape:window-width="1440"
     inkscape:snap-center="true"
     inkscape:snap-object-midpoints="true"
     inkscape:snap-midpoints="true"
     inkscape:snap-smooth-nodes="true"
     inkscape:snap-intersection-paths="true"
     inkscape:object-paths="true"
     inkscape:bbox-paths="true"
     inkscape:bbox-nodes="true"
     inkscape:snap-bbox-edge-midpoints="true"
     inkscape:snap-bbox-midpoints="true"
     inkscape:snap-bbox="true"
     inkscape:lockguides="true"
     units="px"
     showgrid="false"
     inkscape:document-rotation="0"
     inkscape:current-layer="layer1"
     inkscape:document-units="px"
     inkscape:cy="584.70017"
     inkscape:cx="192.93679"
     inkscape:zoom="0.48460489"
     inkscape:pageshadow="2"
     inkscape:pageopacity="0.0"
     borderopacity="1.0"
     bordercolor="#666666"
     pagecolor="#ffffff"
     id="base" />
  <metadata
     id="metadata5">
    <rdf:RDF>
      <cc:Work
         rdf:about="">
        <dc:format>image/svg+xml</dc:format>
        <dc:type
           rdf:resource="http://purl.org/dc/dcmitype/StillImage" />
        <dc:title></dc:title>
      </cc:Work>
    </rdf:RDF>
  </metadata>
  <g
     id="layer1"
     inkscape:groupmode="layer"
     inkscape:label="Layer 1">
    <path
       d="m 119.06277,231.51571 h -0.34 c -4.24998,0 -9.00994,-3.39998 -14.95992,-10.70994 L 83.872976,196.6659 98.662888,177.45601 c 5.949962,-7.47994 8.159952,-10.53993 15.129912,-10.53993 h 2.37999 c 1.69997,0 2.54998,-1.01998 2.54998,-2.55 v -5.09995 c 0,-1.69999 -0.85001,-2.55 -2.54998,-2.55 H 85.06297 c -1.699991,0 -2.549985,0.85001 -2.549985,2.55 v 5.09995 c 0,1.53002 0.849994,2.55 2.549985,2.55 h 1.69999 c 2.889983,0 4.079978,0.68 4.079978,2.03998 0,1.7 -1.86999,4.58999 -5.099972,8.66996 l -8.499952,11.04994 -11.389935,-13.93992 c -2.039988,-2.37999 -3.059982,-4.07998 -3.059982,-5.43997 0,-1.69999 2.039988,-2.37999 6.289963,-2.37999 h 0.339999 c 1.529991,0 2.549986,-1.01998 2.549986,-2.55 v -5.09995 c 0,-1.69999 -1.019995,-2.55 -2.549986,-2.55 H 26.753303 c -1.699989,0 -2.549985,0.85001 -2.549985,2.55 v 5.09995 c 0,1.53002 0.849996,2.55 2.549985,2.55 h 0.339999 c 4.249976,0 9.009948,3.56999 14.959916,10.70994 l 16.489903,19.88989 -18.359893,23.45985 c -5.779969,7.30998 -8.159954,10.53995 -15.129914,10.53995 h -2.039989 v 0.33999 c -0.679995,0.34001 -1.189991,1.02 -1.189991,2.20999 v 5.09997 c 0,1.19 0.509996,2.04 1.35999,2.37999 v 0.17001 h 32.299817 c 1.699989,0 2.549984,-0.85001 2.549984,-2.55 v -5.09997 c 0,-1.69998 -0.849995,-2.54998 -2.549984,-2.54998 h -3.229983 c -2.889983,0 -4.249976,-0.67999 -4.249976,-2.03999 0,-1.69999 2.03999,-4.58997 5.099971,-8.66995 l 11.899932,-15.46991 14.619916,17.6799 c 1.869988,2.03999 2.549985,3.73998 2.549985,4.92998 0,2.88998 -4.079976,3.56997 -6.289964,3.56997 h -0.339998 c -1.529991,0 -2.549985,1.01999 -2.549985,2.54998 v 5.09997 c 0,1.69999 1.019994,2.55 2.549985,2.55 h 43.519746 c 1.69998,0 2.54998,-0.85001 2.54998,-2.55 v -5.09997 c 0,-1.69998 -0.85,-2.54998 -2.54998,-2.54998 z M 127.49847,7.9681951 V 262.96513 H 143.4373 V 7.9681951 Z M 7.9681955,127.49848 v 15.93638 H 262.96758 V 127.49848 Z M 7.9681955,0 C 3.5677768,7.1020641e-4 7.1020641e-4,3.5677774 0,7.9681951 V 135.46667 262.96513 c 7.1020641e-4,4.40042 3.5677768,7.96748 7.9681955,7.9682 H 135.4691 262.96758 c 4.40042,-7.2e-4 7.9675,-3.56778 7.9682,-7.9682 V 135.46667 7.9681951 C 270.93508,3.5677774 267.368,7.1020641e-4 262.96758,0 H 135.4691 Z M 15.938841,15.93639 H 135.4691 l 7.9682,111.56209 111.56208,7.96819 V 254.99694 H 135.4691 15.938841 V 135.46667 Z"
       style="font-style:normal;font-variant:normal;font-weight:normal;font-stretch:normal;font-size:135.467px;line-height:1.25;font-family:YoungSerif;-inkscape-font-specification:YoungSerif;stroke-width:0.923428"
       id="path940" />
  </g>
</svg>
