<?xml version="1.0" standalone="no"?>
<!DOCTYPE svg PUBLIC "-//W3C//DTD SVG 20010904//EN"
 "http://www.w3.org/TR/2001/REC-SVG-20010904/DTD/svg10.dtd">
<svg version="1.0" xmlns="http://www.w3.org/2000/svg"
 width="512.000000pt" height="512.000000pt" viewBox="0 0 512.000000 512.000000"
 preserveAspectRatio="xMidYMid meet">
<metadata>
Created by potrace 1.11, written by Peter Selinger 2001-2013
</metadata>
<g transform="translate(0.000000,512.000000) scale(0.100000,-0.100000)"
fill="#000000" stroke="none">
<path d="M76 5096 c-22 -13 -47 -39 -57 -57 -17 -32 -18 -143 -19 -2471 0
-2694 -5 -2488 63 -2539 l32 -24 2453 -3 c2425 -2 2453 -2 2491 18 27 13 45
33 60 63 l21 43 0 2438 0 2438 -22 39 c-12 22 -33 47 -47 57 -25 16 -167 17
-2481 19 l-2455 3 -39 -24z m2334 -1331 l0 -1055 -1055 0 -1055 0 0 1055 0
1055 1055 0 1055 0 0 -1055z m0 -2410 l0 -1055 -1055 0 -1055 0 0 1055 0 1055
1055 0 1055 0 0 -1055z m2407 3 l-2 -1053 -1052 -3 -1053 -2 0 1055 0 1055
1055 0 1055 0 -3 -1052z"/>
<path d="M469 2144 c-13 -16 -16 -117 -5 -151 4 -13 15 -23 24 -24 42 -2 78
-12 115 -31 50 -25 158 -132 262 -258 43 -52 89 -109 104 -126 14 -18 38 -47
53 -66 15 -19 39 -47 53 -62 14 -15 25 -32 25 -37 0 -8 -52 -82 -70 -99 -3 -3
-68 -86 -145 -185 -251 -324 -279 -349 -395 -359 -37 -3 -58 -10 -68 -23 -18
-24 -11 -151 9 -164 17 -11 644 -8 655 4 13 13 13 145 0 163 -9 11 -30 17 -72
19 -107 4 -123 20 -88 88 15 30 169 239 197 269 7 7 19 22 27 34 8 12 29 40
46 62 l31 41 24 -27 c13 -15 44 -52 69 -82 25 -30 53 -64 62 -75 155 -186 184
-235 160 -271 -12 -19 -52 -35 -91 -37 -61 -3 -71 -18 -71 -103 0 -63 3 -75
20 -84 13 -7 165 -10 444 -10 368 1 427 3 441 16 19 20 21 132 2 158 -8 11
-31 20 -56 23 -95 11 -165 72 -371 324 -74 90 -137 166 -140 169 -15 13 -130
159 -130 165 0 4 48 68 106 143 58 76 116 150 128 165 157 208 205 245 319
252 34 2 67 4 74 4 28 2 39 145 14 175 -9 11 -75 14 -324 14 -178 0 -319 -4
-329 -9 -15 -8 -18 -23 -18 -82 0 -40 4 -78 8 -84 4 -7 34 -14 65 -17 115 -8
112 -38 -23 -216 -40 -52 -88 -116 -108 -142 -22 -29 -40 -44 -48 -40 -7 4
-32 32 -56 62 -23 30 -53 66 -66 80 -13 14 -50 60 -83 103 -85 112 -78 143 31
151 28 2 57 9 65 16 21 17 21 143 0 163 -21 22 -858 22 -876 1z"/>
</g>
</svg>
